0
SECTION
2
HEADER
9
$INSUNITS
70
4
9
$ACADVER
1
AC1014
9
$HANDSEED
5
FFFF
0
ENDSEC
0
SECTION
2
TABLES
0
TABLE
2
VPORT
5
8
100
AcDbSymbolTable
0
ENDTAB
0
TABLE
2
LTYPE
5
5
100
AcDbSymbolTable
0
LTYPE
5
14
100
AcDbSymbolTableRecord
100
AcDbLinetypeTableRecord
2
BYBLOCK
70
0
0
LTYPE
5
15
100
AcDbSymbolTableRecord
100
AcDbLinetypeTableRecord
2
BYLAYER
70
0
0
ENDTAB
0
TABLE
2
LAYER
5
2
100
AcDbSymbolTable
70
2
0
LAYER
5
50
100
AcDbSymbolTableRecord
100
AcDbLayerTableRecord
2
0
70
0
6
CONTINUOUS
0
ENDTAB
0
TABLE
2
STYLE
5
3
100
AcDbSymbolTable
70
1
0
STYLE
5
11
100
AcDbSymbolTableRecord
100
AcDbTextStyleTableRecord
2
STANDARD
70
0
0
ENDTAB
0
TABLE
2
VIEW
5
6
100
AcDbSymbolTable
70
0
0
ENDTAB
0
TABLE
2
UCS
5
7
100
AcDbSymbolTable
70
0
0
ENDTAB
0
TABLE
2
APPID
5
9
100
AcDbSymbolTable
70
2
0
APPID
5
12
100
AcDbSymbolTableRecord
100
AcDbRegAppTableRecord
2
ACAD
70
0
0
ENDTAB
0
TABLE
2
DIMSTYLE
5
A
100
AcDbSymbolTable
70
1
0
ENDTAB
0
TABLE
2
BLOCK_RECORD
5
1
100
AcDbSymbolTable
70
1
0
BLOCK_RECORD
5
1F
100
AcDbSymbolTableRecord
100
AcDbBlockTableRecord
2
*MODEL_SPACE
0
BLOCK_RECORD
5
1B
100
AcDbSymbolTableRecord
100
AcDbBlockTableRecord
2
*PAPER_SPACE
0
ENDTAB
0
ENDSEC
0
SECTION
2
BLOCKS
0
BLOCK
5
20
100
AcDbEntity
100
AcDbBlockBegin
2
*MODEL_SPACE
0
ENDBLK
5
21
100
AcDbEntity
100
AcDbBlockEnd
0
BLOCK
5
1C
100
AcDbEntity
100
AcDbBlockBegin
2
*PAPER_SPACE
0
ENDBLK
5
1D
100
AcDbEntity
100
AcDbBlockEnd
0
ENDSEC
0
SECTION
2
ENTITIES
0
LWPOLYLINE
5
100
100
AcDbEntity
8
0
100
AcDbPolyline
90
4
70
1
43
0.0
10
-15.350000000000003
20
15.350000000000003
10
-15.350000000000003
20
9.5499999999999989
10
-9.5500000000000007
20
9.5499999999999989
10
-9.5500000000000007
20
15.350000000000003
0
LWPOLYLINE
5
101
100
AcDbEntity
8
0
100
AcDbPolyline
90
6
70
1
43
0.0
10
-7.9250000000000025
20
19.950000000000006
10
-7.9250000000000025
20
24.100000000000005
42
0.41421356237309276
10
-8.9250000000000025
20
25.100000000000009
10
-15.975000000000001
20
25.100000000000001
42
0.41421356237309048
10
-16.975000000000001
20
24.100000000000005
10
-16.975000000000001
20
19.950000000000003
0
LWPOLYLINE
5
102
100
AcDbEntity
8
0
100
AcDbPolyline
90
28
70
1
43
0.0
10
-24.700000000000003
20
7.9250000000000025
10
-20.950000000000006
20
7.9250000000000025
42
0.41421356237309276
10
-19.950000000000006
20
8.9250000000000025
10
-19.950000000000003
20
15.975000000000003
42
0.41421356237309243
10
-20.950000000000003
20
16.975000000000005
10
-24.700000000000003
20
16.975000000000005
10
-24.700000000000003
20
29.5
10
-16.250000000000004
20
29.499999999999996
10
-16.250000000000004
20
36.70000000000001
10
-8.6500000000000004
20
36.70000000000001
10
-8.6500000000000004
20
29.499999999999996
10
-0.19999999999999934
20
29.5
10
-0.19999999999999962
20
16.975000000000005
10
-3.9500000000000028
20
16.975000000000005
42
0.4142135623730947
10
-4.9500000000000028
20
15.975000000000003
10
-4.950000000000002
20
8.9250000000000025
42
0.4142135623730952
10
-3.9500000000000002
20
7.9250000000000025
10
-0.19999999999999934
20
7.9250000000000025
10
-0.19999999999999574
20
5.0601344210684553
10
-6.0575333117063668
20
-3.799999999999998
10
-7.9250000000000007
20
-3.7999999999999985
10
-7.9249999999999989
20
3.9500000000000006
42
0.41421356237309503
10
-8.9249999999999989
20
4.9500000000000002
10
-15.975000000000001
20
4.9500000000000002
42
0.41421356237309276
10
-16.975000000000001
20
3.9500000000000037
10
-16.975000000000001
20
-3.799999999999998
10
-18.842466688293634
20
-3.799999999999998
10
-24.700000000000003
20
5.060134421068458
0
CIRCLE
5
103
100
AcDbEntity
8
0
100
AcDbCircle
10
12.450000000000001
20
33.400000000000006
30
0
40
1.5500000000000003
210
0
220
0
230
-1
0
CIRCLE
5
104
100
AcDbEntity
8
0
100
AcDbCircle
10
18.475000000000001
20
15.605000000000004
30
-1.9428902930940239e-15
40
0.40000000000000008
210
0
220
0
230
-1
0
CIRCLE
5
105
100
AcDbEntity
8
0
100
AcDbCircle
10
18.475000000000005
20
18.145000000000003
30
-1.9428902930940239e-15
40
0.40000000000000008
210
0
220
0
230
-1
0
CIRCLE
5
106
100
AcDbEntity
8
0
100
AcDbCircle
10
4.2950000000000035
20
18.475000000000005
30
-5.5511151231257827e-16
40
0.40000000000000008
210
0
220
0
230
-1
0
CIRCLE
5
107
100
AcDbEntity
8
0
100
AcDbCircle
10
1.7550000000000023
20
18.475000000000009
30
-5.5511151231257827e-16
40
0.40000000000000008
210
0
220
0
230
-1
0
CIRCLE
5
108
100
AcDbEntity
8
0
100
AcDbCircle
10
5.1750000000000007
20
20.605000000000008
30
-5.5511151231257827e-16
40
0.40000000000000008
210
0
220
0
230
-1
0
CIRCLE
5
109
100
AcDbEntity
8
0
100
AcDbCircle
10
5.1750000000000016
20
23.145000000000007
30
-5.5511151231257827e-16
40
0.40000000000000008
210
0
220
0
230
-1
0
CIRCLE
5
110
100
AcDbEntity
8
0
100
AcDbCircle
10
20.605000000000008
20
6.4250000000000025
30
-5.5511151231257827e-16
40
0.40000000000000008
210
0
220
0
230
-1
0
CIRCLE
5
111
100
AcDbEntity
8
0
100
AcDbCircle
10
23.145000000000007
20
6.4250000000000025
30
-5.5511151231257827e-16
40
0.40000000000000008
210
0
220
0
230
-1
0
CIRCLE
5
112
100
AcDbEntity
8
0
100
AcDbCircle
10
18.475000000000005
20
1.7550000000000001
30
-5.5511151231257827e-16
40
0.40000000000000008
210
0
220
0
230
-1
0
CIRCLE
5
113
100
AcDbEntity
8
0
100
AcDbCircle
10
18.475000000000005
20
4.2950000000000008
30
-5.5511151231257827e-16
40
0.40000000000000008
210
0
220
0
230
-1
0
CIRCLE
5
114
100
AcDbEntity
8
0
100
AcDbCircle
10
6.4250000000000007
20
4.2950000000000008
30
-1.9428902930940239e-15
40
0.40000000000000008
210
0
220
0
230
-1
0
CIRCLE
5
115
100
AcDbEntity
8
0
100
AcDbCircle
10
6.4250000000000007
20
1.7550000000000008
30
-1.9428902930940239e-15
40
0.40000000000000008
210
0
220
0
230
-1
0
CIRCLE
5
116
100
AcDbEntity
8
0
100
AcDbCircle
10
20.605000000000008
20
18.475000000000005
30
-1.9428902930940239e-15
40
0.40000000000000008
210
0
220
0
230
-1
0
CIRCLE
5
117
100
AcDbEntity
8
0
100
AcDbCircle
10
23.145000000000003
20
18.475000000000005
30
-1.9428902930940239e-15
40
0.40000000000000008
210
0
220
0
230
-1
0
CIRCLE
5
118
100
AcDbEntity
8
0
100
AcDbCircle
10
19.725000000000005
20
20.605000000000008
30
-1.9428902930940239e-15
40
0.40000000000000008
210
0
220
0
230
-1
0
CIRCLE
5
119
100
AcDbEntity
8
0
100
AcDbCircle
10
19.725000000000005
20
23.145000000000003
30
-1.9428902930940239e-15
40
0.40000000000000008
210
0
220
0
230
-1
0
CIRCLE
5
120
100
AcDbEntity
8
0
100
AcDbCircle
10
4.2950000000000008
20
6.4250000000000016
30
-1.9428902930940239e-15
40
0.40000000000000008
210
0
220
0
230
-1
0
CIRCLE
5
121
100
AcDbEntity
8
0
100
AcDbCircle
10
1.7550000000000001
20
6.4250000000000025
30
-1.9428902930940239e-15
40
0.40000000000000008
210
0
220
0
230
-1
0
CIRCLE
5
122
100
AcDbEntity
8
0
100
AcDbCircle
10
6.4250000000000043
20
15.605000000000008
30
-1.1102230246251565e-15
40
0.40000000000000008
210
0
220
0
230
-1
0
CIRCLE
5
123
100
AcDbEntity
8
0
100
AcDbCircle
10
6.4250000000000043
20
18.145000000000007
30
-1.1102230246251565e-15
40
0.40000000000000008
210
0
220
0
230
-1
0
CIRCLE
5
124
100
AcDbEntity
8
0
100
AcDbCircle
10
15.450000000000001
20
27.5
30
0
40
0.35000000000000003
210
0
220
0
230
-1
0
CIRCLE
5
125
100
AcDbEntity
8
0
100
AcDbCircle
10
12.450000000000001
20
27.5
30
0
40
0.35000000000000003
210
0
220
0
230
-1
0
CIRCLE
5
126
100
AcDbEntity
8
0
100
AcDbCircle
10
9.4500000000000011
20
27.5
30
0
40
0.35000000000000003
210
0
220
0
230
-1
0
CIRCLE
5
127
100
AcDbEntity
8
0
100
AcDbCircle
10
7.9500000000000002
20
27.5
30
0
40
0.35000000000000003
210
0
220
0
230
-1
0
CIRCLE
5
128
100
AcDbEntity
8
0
100
AcDbCircle
10
10.950000000000003
20
27.5
30
0
40
0.35000000000000003
210
0
220
0
230
-1
0
CIRCLE
5
129
100
AcDbEntity
8
0
100
AcDbCircle
10
13.950000000000003
20
27.5
30
0
40
0.35000000000000003
210
0
220
0
230
-1
0
CIRCLE
5
130
100
AcDbEntity
8
0
100
AcDbCircle
10
16.950000000000003
20
27.5
30
0
40
0.35000000000000003
210
0
220
0
230
-1
0
ENDSEC
0
SECTION
2
OBJECTS
0
DICTIONARY
5
C
100
AcDbDictionary
3
ACAD_GROUP
350
D
3
ACAD_MLINESTYLE
350
17
0
DICTIONARY
5
D
100
AcDbDictionary
0
DICTIONARY
5
1A
330
C
100
AcDbDictionary
0
DICTIONARY
5
17
100
AcDbDictionary
0
ENDSEC
0
EOF
