0
SECTION
2
HEADER
9
$INSUNITS
70
4
9
$ACADVER
1
AC1014
9
$HANDSEED
5
FFFF
0
ENDSEC
0
SECTION
2
TABLES
0
TABLE
2
VPORT
5
8
100
AcDbSymbolTable
0
ENDTAB
0
TABLE
2
LTYPE
5
5
100
AcDbSymbolTable
0
LTYPE
5
14
100
AcDbSymbolTableRecord
100
AcDbLinetypeTableRecord
2
BYBLOCK
70
0
0
LTYPE
5
15
100
AcDbSymbolTableRecord
100
AcDbLinetypeTableRecord
2
BYLAYER
70
0
0
ENDTAB
0
TABLE
2
LAYER
5
2
100
AcDbSymbolTable
70
2
0
LAYER
5
50
100
AcDbSymbolTableRecord
100
AcDbLayerTableRecord
2
0
70
0
6
CONTINUOUS
0
ENDTAB
0
TABLE
2
STYLE
5
3
100
AcDbSymbolTable
70
1
0
STYLE
5
11
100
AcDbSymbolTableRecord
100
AcDbTextStyleTableRecord
2
STANDARD
70
0
0
ENDTAB
0
TABLE
2
VIEW
5
6
100
AcDbSymbolTable
70
0
0
ENDTAB
0
TABLE
2
UCS
5
7
100
AcDbSymbolTable
70
0
0
ENDTAB
0
TABLE
2
APPID
5
9
100
AcDbSymbolTable
70
2
0
APPID
5
12
100
AcDbSymbolTableRecord
100
AcDbRegAppTableRecord
2
ACAD
70
0
0
ENDTAB
0
TABLE
2
DIMSTYLE
5
A
100
AcDbSymbolTable
70
1
0
ENDTAB
0
TABLE
2
BLOCK_RECORD
5
1
100
AcDbSymbolTable
70
1
0
BLOCK_RECORD
5
1F
100
AcDbSymbolTableRecord
100
AcDbBlockTableRecord
2
*MODEL_SPACE
0
BLOCK_RECORD
5
1B
100
AcDbSymbolTableRecord
100
AcDbBlockTableRecord
2
*PAPER_SPACE
0
ENDTAB
0
ENDSEC
0
SECTION
2
BLOCKS
0
BLOCK
5
20
100
AcDbEntity
100
AcDbBlockBegin
2
*MODEL_SPACE
0
ENDBLK
5
21
100
AcDbEntity
100
AcDbBlockEnd
0
BLOCK
5
1C
100
AcDbEntity
100
AcDbBlockBegin
2
*PAPER_SPACE
0
ENDBLK
5
1D
100
AcDbEntity
100
AcDbBlockEnd
0
ENDSEC
0
SECTION
2
ENTITIES
0
CIRCLE
5
100
100
AcDbEntity
8
0
100
AcDbCircle
10
12.450000000000006
20
3.5000000000000075
30
0
40
1.5500000000000003
210
0
220
0
230
1
0
CIRCLE
5
101
100
AcDbEntity
8
0
100
AcDbCircle
10
6.4250000000000131
20
21.295000000000016
30
0
40
0.40000000000000008
210
-0
220
0
230
1
0
CIRCLE
5
102
100
AcDbEntity
8
0
100
AcDbCircle
10
6.4250000000000096
20
18.755000000000013
30
0
40
0.40000000000000008
210
-0
220
0
230
1
0
CIRCLE
5
103
100
AcDbEntity
8
0
100
AcDbCircle
10
4.2950000000000061
20
30.475000000000016
30
0
40
0.40000000000000008
210
-0
220
0
230
1
0
CIRCLE
5
104
100
AcDbEntity
8
0
100
AcDbCircle
10
1.7550000000000066
20
30.475000000000016
30
0
40
0.40000000000000008
210
-0
220
0
230
1
0
CIRCLE
5
105
100
AcDbEntity
8
0
100
AcDbCircle
10
19.725000000000009
20
16.295000000000009
30
0
40
0.40000000000000008
210
0
220
0
230
1
0
CIRCLE
5
106
100
AcDbEntity
8
0
100
AcDbCircle
10
19.725000000000009
20
13.755000000000008
30
0
40
0.40000000000000008
210
0
220
0
230
1
0
CIRCLE
5
107
100
AcDbEntity
8
0
100
AcDbCircle
10
20.605000000000008
20
18.425000000000011
30
0
40
0.40000000000000008
210
0
220
0
230
1
0
CIRCLE
5
108
100
AcDbEntity
8
0
100
AcDbCircle
10
23.145000000000007
20
18.425000000000008
30
0
40
0.40000000000000008
210
0
220
0
230
1
0
CIRCLE
5
109
100
AcDbEntity
8
0
100
AcDbCircle
10
6.4250000000000052
20
35.145000000000017
30
0
40
0.40000000000000008
210
-0
220
0
230
1
0
CIRCLE
5
110
100
AcDbEntity
8
0
100
AcDbCircle
10
6.4250000000000052
20
32.605000000000018
30
0
40
0.40000000000000008
210
-0
220
0
230
1
0
CIRCLE
5
111
100
AcDbEntity
8
0
100
AcDbCircle
10
18.475000000000009
20
32.605000000000011
30
0
40
0.40000000000000008
210
-0
220
0
230
1
0
CIRCLE
5
112
100
AcDbEntity
8
0
100
AcDbCircle
10
18.475000000000012
20
35.14500000000001
30
0
40
0.40000000000000008
210
-0
220
0
230
1
0
CIRCLE
5
113
100
AcDbEntity
8
0
100
AcDbCircle
10
20.605000000000008
20
30.475000000000016
30
0
40
0.40000000000000008
210
-0
220
0
230
1
0
CIRCLE
5
114
100
AcDbEntity
8
0
100
AcDbCircle
10
23.14500000000001
20
30.475000000000016
30
0
40
0.40000000000000008
210
-0
220
0
230
1
0
CIRCLE
5
115
100
AcDbEntity
8
0
100
AcDbCircle
10
5.1750000000000016
20
16.295000000000016
30
0
40
0.40000000000000008
210
-0
220
0
230
1
0
CIRCLE
5
116
100
AcDbEntity
8
0
100
AcDbCircle
10
5.1750000000000016
20
13.755000000000015
30
0
40
0.40000000000000008
210
-0
220
0
230
1
0
CIRCLE
5
117
100
AcDbEntity
8
0
100
AcDbCircle
10
4.2950000000000097
20
18.425000000000011
30
0
40
0.40000000000000008
210
0
220
0
230
1
0
CIRCLE
5
118
100
AcDbEntity
8
0
100
AcDbCircle
10
1.7550000000000099
20
18.425000000000011
30
0
40
0.40000000000000008
210
0
220
0
230
1
0
CIRCLE
5
119
100
AcDbEntity
8
0
100
AcDbCircle
10
18.475000000000005
20
21.295000000000009
30
0
40
0.40000000000000008
210
0
220
0
230
1
0
CIRCLE
5
120
100
AcDbEntity
8
0
100
AcDbCircle
10
18.475000000000005
20
18.75500000000001
30
0
40
0.40000000000000008
210
0
220
0
230
1
0
CIRCLE
5
121
100
AcDbEntity
8
0
100
AcDbCircle
10
9.4500000000000011
20
8.6000000000000103
30
0
40
0.35000000000000003
210
0
220
0
230
1
0
CIRCLE
5
122
100
AcDbEntity
8
0
100
AcDbCircle
10
12.450000000000001
20
8.6000000000000068
30
0
40
0.35000000000000003
210
0
220
0
230
1
0
CIRCLE
5
123
100
AcDbEntity
8
0
100
AcDbCircle
10
15.450000000000001
20
8.6000000000000068
30
0
40
0.35000000000000003
210
0
220
0
230
1
0
CIRCLE
5
124
100
AcDbEntity
8
0
100
AcDbCircle
10
16.950000000000003
20
8.6000000000000068
30
0
40
0.35000000000000003
210
0
220
0
230
1
0
CIRCLE
5
125
100
AcDbEntity
8
0
100
AcDbCircle
10
13.950000000000003
20
8.6000000000000068
30
0
40
0.35000000000000003
210
0
220
0
230
1
0
CIRCLE
5
126
100
AcDbEntity
8
0
100
AcDbCircle
10
10.950000000000003
20
8.6000000000000068
30
0
40
0.35000000000000003
210
0
220
0
230
1
0
CIRCLE
5
127
100
AcDbEntity
8
0
100
AcDbCircle
10
7.9500000000000002
20
8.6000000000000103
30
0
40
0.35000000000000003
210
0
220
0
230
1
0
LWPOLYLINE
5
128
100
AcDbEntity
8
0
100
AcDbPolyline
90
8
70
1
43
0.0
10
10.750000000000009
20
27.150000000000013
10
14.150000000000009
20
27.150000000000016
42
-0.41421356237309631
10
15.150000000000007
20
26.150000000000013
10
15.150000000000009
20
22.750000000000021
42
-0.41421356237309698
10
14.150000000000007
20
21.750000000000011
10
10.750000000000009
20
21.750000000000014
42
-0.4142135623730957
10
9.7500000000000071
20
22.750000000000014
10
9.7500000000000107
20
26.150000000000013
42
-0.4142135623730957
0
LWPOLYLINE
5
129
100
AcDbEntity
8
0
100
AcDbPolyline
90
8
70
1
43
0.0
10
16.975000000000009
20
15.950000000000008
10
16.975000000000009
20
12.800000000000011
42
-0.41421356237309243
10
15.97500000000001
20
11.800000000000011
10
8.9250000000000043
20
11.800000000000013
42
-0.41421356237309082
10
7.9250000000000052
20
12.800000000000013
10
7.9250000000000052
20
15.950000000000015
42
-0.41421356237309115
10
8.925000000000006
20
16.950000000000017
10
15.975000000000009
20
16.95000000000001
42
-0.41421356237309309
0
LWPOLYLINE
5
130
100
AcDbEntity
8
0
100
AcDbPolyline
90
30
70
1
43
0.0
10
24.700000000000006
20
31.839865578931562
10
21.48691113273809
20
36.70000000000001
10
16.975000000000012
20
36.70000000000001
10
16.975000000000012
20
32.95000000000001
42
-0.41421356237309503
10
15.975000000000012
20
31.950000000000006
10
8.9250000000000096
20
31.950000000000017
42
-0.41421356237309176
10
7.9250000000000096
20
32.95000000000001
10
7.9250000000000096
20
36.70000000000001
10
3.4130888672619268
20
36.70000000000001
10
0.20000000000000642
20
31.839865578931562
10
0.20000000000000628
20
28.975000000000016
10
3.9500000000000126
20
28.975000000000016
42
-0.41421356237309243
10
4.9500000000000073
20
27.975000000000012
10
4.9500000000000037
20
20.925000000000011
42
-0.41421356237309503
10
3.9500000000000073
20
19.925000000000015
10
0.2000000000000029
20
19.925000000000015
10
0.2000000000000024
20
7.2000000000000108
10
7.6500000000000048
20
7.2000000000000073
42
-0.41421356237309148
10
8.6500000000000039
20
6.2000000000000046
10
8.6500000000000039
20
0.2000000000000029
10
16.250000000000004
20
0.2000000000000024
10
16.250000000000004
20
6.2000000000000028
42
-0.41421356237309209
10
17.250000000000004
20
7.2000000000000046
10
24.700000000000003
20
7.2000000000000082
10
24.700000000000006
20
19.925000000000011
10
20.950000000000006
20
19.925000000000011
42
-0.41421356237309243
10
19.950000000000006
20
20.925000000000011
10
19.95000000000001
20
27.975000000000012
42
-0.41421356237309503
10
20.95000000000001
20
28.975000000000012
10
24.700000000000006
20
28.975000000000012
0
CIRCLE
5
131
100
AcDbEntity
8
0
100
AcDbCircle
10
0
20
0
30
0
40
1.0000000000000002
210
0
220
-0
230
1
0
ENDSEC
0
SECTION
2
OBJECTS
0
DICTIONARY
5
C
100
AcDbDictionary
3
ACAD_GROUP
350
D
3
ACAD_MLINESTYLE
350
17
0
DICTIONARY
5
D
100
AcDbDictionary
0
DICTIONARY
5
1A
330
C
100
AcDbDictionary
0
DICTIONARY
5
17
100
AcDbDictionary
0
ENDSEC
0
EOF
