0
SECTION
2
HEADER
9
$INSUNITS
70
4
9
$ACADVER
1
AC1014
9
$HANDSEED
5
FFFF
0
ENDSEC
0
SECTION
2
TABLES
0
TABLE
2
VPORT
5
8
100
AcDbSymbolTable
0
ENDTAB
0
TABLE
2
LTYPE
5
5
100
AcDbSymbolTable
0
LTYPE
5
14
100
AcDbSymbolTableRecord
100
AcDbLinetypeTableRecord
2
BYBLOCK
70
0
0
LTYPE
5
15
100
AcDbSymbolTableRecord
100
AcDbLinetypeTableRecord
2
BYLAYER
70
0
0
ENDTAB
0
TABLE
2
LAYER
5
2
100
AcDbSymbolTable
70
2
0
LAYER
5
50
100
AcDbSymbolTableRecord
100
AcDbLayerTableRecord
2
0
70
0
6
CONTINUOUS
0
ENDTAB
0
TABLE
2
STYLE
5
3
100
AcDbSymbolTable
70
1
0
STYLE
5
11
100
AcDbSymbolTableRecord
100
AcDbTextStyleTableRecord
2
STANDARD
70
0
0
ENDTAB
0
TABLE
2
VIEW
5
6
100
AcDbSymbolTable
70
0
0
ENDTAB
0
TABLE
2
UCS
5
7
100
AcDbSymbolTable
70
0
0
ENDTAB
0
TABLE
2
APPID
5
9
100
AcDbSymbolTable
70
2
0
APPID
5
12
100
AcDbSymbolTableRecord
100
AcDbRegAppTableRecord
2
ACAD
70
0
0
ENDTAB
0
TABLE
2
DIMSTYLE
5
A
100
AcDbSymbolTable
70
1
0
ENDTAB
0
TABLE
2
BLOCK_RECORD
5
1
100
AcDbSymbolTable
70
1
0
BLOCK_RECORD
5
1F
100
AcDbSymbolTableRecord
100
AcDbBlockTableRecord
2
*MODEL_SPACE
0
BLOCK_RECORD
5
1B
100
AcDbSymbolTableRecord
100
AcDbBlockTableRecord
2
*PAPER_SPACE
0
ENDTAB
0
ENDSEC
0
SECTION
2
BLOCKS
0
BLOCK
5
20
100
AcDbEntity
100
AcDbBlockBegin
2
*MODEL_SPACE
0
ENDBLK
5
21
100
AcDbEntity
100
AcDbBlockEnd
0
BLOCK
5
1C
100
AcDbEntity
100
AcDbBlockBegin
2
*PAPER_SPACE
0
ENDBLK
5
1D
100
AcDbEntity
100
AcDbBlockEnd
0
ENDSEC
0
SECTION
2
ENTITIES
0
CIRCLE
5
100
100
AcDbEntity
8
0
100
AcDbCircle
10
12.449999999999999
20
3.5000000000000222
30
0
40
1.5500000000000003
210
0
220
0
230
1
0
CIRCLE
5
101
100
AcDbEntity
8
0
100
AcDbCircle
10
6.4249999999999989
20
21.29500000000003
30
0
40
0.40000000000000008
210
-0
220
0
230
1
0
CIRCLE
5
102
100
AcDbEntity
8
0
100
AcDbCircle
10
6.4249999999999954
20
18.755000000000027
30
0
40
0.40000000000000008
210
-0
220
0
230
1
0
CIRCLE
5
103
100
AcDbEntity
8
0
100
AcDbCircle
10
20.604999999999997
20
18.425000000000022
30
0
40
0.40000000000000008
210
0
220
0
230
1
0
CIRCLE
5
104
100
AcDbEntity
8
0
100
AcDbCircle
10
23.145000000000003
20
18.425000000000018
30
0
40
0.40000000000000008
210
0
220
0
230
1
0
CIRCLE
5
105
100
AcDbEntity
8
0
100
AcDbCircle
10
19.724999999999998
20
16.295000000000019
30
0
40
0.40000000000000008
210
0
220
0
230
1
0
CIRCLE
5
106
100
AcDbEntity
8
0
100
AcDbCircle
10
19.724999999999998
20
13.75500000000002
30
0
40
0.40000000000000008
210
0
220
0
230
1
0
CIRCLE
5
107
100
AcDbEntity
8
0
100
AcDbCircle
10
4.2949999999999955
20
30.47500000000003
30
0
40
0.40000000000000008
210
-0
220
0
230
1
0
CIRCLE
5
108
100
AcDbEntity
8
0
100
AcDbCircle
10
1.7549999999999957
20
30.47500000000003
30
0
40
0.40000000000000008
210
-0
220
0
230
1
0
CIRCLE
5
109
100
AcDbEntity
8
0
100
AcDbCircle
10
6.4249999999999989
20
35.145000000000032
30
0
40
0.40000000000000008
210
-0
220
0
230
1
0
CIRCLE
5
110
100
AcDbEntity
8
0
100
AcDbCircle
10
6.4249999999999989
20
32.605000000000032
30
0
40
0.40000000000000008
210
-0
220
0
230
1
0
CIRCLE
5
111
100
AcDbEntity
8
0
100
AcDbCircle
10
18.475000000000001
20
32.605000000000025
30
0
40
0.40000000000000008
210
-0
220
0
230
1
0
CIRCLE
5
112
100
AcDbEntity
8
0
100
AcDbCircle
10
18.475000000000005
20
35.145000000000024
30
0
40
0.40000000000000008
210
-0
220
0
230
1
0
CIRCLE
5
113
100
AcDbEntity
8
0
100
AcDbCircle
10
4.2949999999999955
20
18.425000000000026
30
0
40
0.40000000000000008
210
0
220
0
230
1
0
CIRCLE
5
114
100
AcDbEntity
8
0
100
AcDbCircle
10
1.7549999999999957
20
18.425000000000026
30
0
40
0.40000000000000008
210
0
220
0
230
1
0
CIRCLE
5
115
100
AcDbEntity
8
0
100
AcDbCircle
10
5.1749999999999954
20
16.295000000000027
30
0
40
0.40000000000000008
210
-0
220
0
230
1
0
CIRCLE
5
116
100
AcDbEntity
8
0
100
AcDbCircle
10
5.1749999999999954
20
13.755000000000026
30
0
40
0.40000000000000008
210
-0
220
0
230
1
0
CIRCLE
5
117
100
AcDbEntity
8
0
100
AcDbCircle
10
20.605000000000004
20
30.475000000000026
30
0
40
0.40000000000000008
210
-0
220
0
230
1
0
CIRCLE
5
118
100
AcDbEntity
8
0
100
AcDbCircle
10
23.145000000000003
20
30.475000000000026
30
0
40
0.40000000000000008
210
-0
220
0
230
1
0
CIRCLE
5
119
100
AcDbEntity
8
0
100
AcDbCircle
10
18.474999999999998
20
21.295000000000019
30
0
40
0.40000000000000008
210
0
220
0
230
1
0
CIRCLE
5
120
100
AcDbEntity
8
0
100
AcDbCircle
10
18.474999999999998
20
18.75500000000002
30
0
40
0.40000000000000008
210
0
220
0
230
1
0
CIRCLE
5
121
100
AcDbEntity
8
0
100
AcDbCircle
10
9.4499999999999975
20
8.6000000000000245
30
0
40
0.35000000000000003
210
0
220
0
230
1
0
CIRCLE
5
122
100
AcDbEntity
8
0
100
AcDbCircle
10
12.449999999999999
20
8.600000000000021
30
0
40
0.35000000000000003
210
0
220
0
230
1
0
CIRCLE
5
123
100
AcDbEntity
8
0
100
AcDbCircle
10
15.449999999999999
20
8.600000000000021
30
0
40
0.35000000000000003
210
0
220
0
230
1
0
CIRCLE
5
124
100
AcDbEntity
8
0
100
AcDbCircle
10
16.949999999999999
20
8.600000000000021
30
0
40
0.35000000000000003
210
0
220
0
230
1
0
CIRCLE
5
125
100
AcDbEntity
8
0
100
AcDbCircle
10
13.949999999999998
20
8.600000000000021
30
0
40
0.35000000000000003
210
0
220
0
230
1
0
CIRCLE
5
126
100
AcDbEntity
8
0
100
AcDbCircle
10
10.949999999999998
20
8.600000000000021
30
0
40
0.35000000000000003
210
0
220
0
230
1
0
CIRCLE
5
127
100
AcDbEntity
8
0
100
AcDbCircle
10
7.9499999999999975
20
8.6000000000000245
30
0
40
0.35000000000000003
210
0
220
0
230
1
0
LWPOLYLINE
5
128
100
AcDbEntity
8
0
100
AcDbPolyline
90
8
70
1
43
0.0
10
10.750000000000002
20
21.750000000000025
42
-0.4142135623730957
10
9.75
20
22.750000000000025
10
9.7500000000000036
20
26.150000000000027
42
-0.41421356237309503
10
10.75
20
27.150000000000027
10
14.149999999999999
20
27.150000000000027
42
-0.41421356237309698
10
15.149999999999999
20
26.150000000000023
10
15.150000000000002
20
22.750000000000028
42
-0.41421356237309631
10
14.15
20
21.750000000000025
0
LWPOLYLINE
5
129
100
AcDbEntity
8
0
100
AcDbPolyline
90
8
70
1
43
0.0
10
16.974999999999994
20
12.800000000000022
42
-0.41421356237309309
10
15.975
20
11.800000000000024
10
8.9249999999999989
20
11.800000000000029
42
-0.41421356237309148
10
7.9250000000000025
20
12.800000000000026
10
7.9250000000000043
20
15.950000000000031
42
-0.41421356237308915
10
8.9249999999999989
20
16.950000000000024
10
15.974999999999998
20
16.950000000000017
42
-0.4142135623730937
10
16.974999999999994
20
15.950000000000021
0
LWPOLYLINE
5
130
100
AcDbEntity
8
0
100
AcDbPolyline
90
30
70
1
43
0.0
10
7.9250000000000025
20
32.950000000000024
10
7.9250000000000025
20
36.700000000000031
10
3.4130888672619197
20
36.700000000000031
10
0.19999999999999934
20
31.839865578931573
10
0.19999999999999962
20
28.975000000000026
10
3.9499999999999957
20
28.975000000000026
42
-0.41421356237309165
10
4.9499999999999966
20
27.97500000000003
10
4.9499999999999957
20
20.925000000000026
42
-0.41421356237309276
10
3.9499999999999962
20
19.925000000000026
10
0.19999999999999576
20
19.925000000000026
10
0.19999999999999574
20
7.200000000000025
10
7.6499999999999968
20
7.2000000000000224
42
-0.41421356237309176
10
8.6499999999999968
20
6.2000000000000179
10
8.6499999999999968
20
0.20000000000001
10
16.249999999999996
20
0.20000000000001017
10
16.25
20
6.2000000000000179
42
-0.41421356237309209
10
17.249999999999996
20
7.2000000000000188
10
24.700000000000003
20
7.2000000000000224
10
24.700000000000003
20
19.925000000000022
10
20.950000000000003
20
19.925000000000022
42
-0.41421356237309503
10
19.949999999999999
20
20.925000000000026
10
19.950000000000003
20
27.975000000000026
42
-0.41421356237309503
10
20.950000000000003
20
28.975000000000026
10
24.700000000000003
20
28.975000000000023
10
24.700000000000006
20
31.839865578931573
10
21.486911132738086
20
36.700000000000031
10
16.975000000000005
20
36.700000000000031
10
16.975000000000001
20
32.950000000000024
42
-0.41421356237309503
10
15.975000000000003
20
31.950000000000024
10
8.9250000000000025
20
31.950000000000031
42
-0.41421356237309176
0
ENDSEC
0
SECTION
2
OBJECTS
0
DICTIONARY
5
C
100
AcDbDictionary
3
ACAD_GROUP
350
D
3
ACAD_MLINESTYLE
350
17
0
DICTIONARY
5
D
100
AcDbDictionary
0
DICTIONARY
5
1A
330
C
100
AcDbDictionary
0
DICTIONARY
5
17
100
AcDbDictionary
0
ENDSEC
0
EOF
