0
SECTION
2
HEADER
9
$INSUNITS
70
4
9
$ACADVER
1
AC1014
9
$HANDSEED
5
FFFF
0
ENDSEC
0
SECTION
2
TABLES
0
TABLE
2
VPORT
5
8
100
AcDbSymbolTable
0
ENDTAB
0
TABLE
2
LTYPE
5
5
100
AcDbSymbolTable
0
LTYPE
5
14
100
AcDbSymbolTableRecord
100
AcDbLinetypeTableRecord
2
BYBLOCK
70
0
0
LTYPE
5
15
100
AcDbSymbolTableRecord
100
AcDbLinetypeTableRecord
2
BYLAYER
70
0
0
ENDTAB
0
TABLE
2
LAYER
5
2
100
AcDbSymbolTable
70
2
0
LAYER
5
50
100
AcDbSymbolTableRecord
100
AcDbLayerTableRecord
2
0
70
0
6
CONTINUOUS
0
ENDTAB
0
TABLE
2
STYLE
5
3
100
AcDbSymbolTable
70
1
0
STYLE
5
11
100
AcDbSymbolTableRecord
100
AcDbTextStyleTableRecord
2
STANDARD
70
0
0
ENDTAB
0
TABLE
2
VIEW
5
6
100
AcDbSymbolTable
70
0
0
ENDTAB
0
TABLE
2
UCS
5
7
100
AcDbSymbolTable
70
0
0
ENDTAB
0
TABLE
2
APPID
5
9
100
AcDbSymbolTable
70
2
0
APPID
5
12
100
AcDbSymbolTableRecord
100
AcDbRegAppTableRecord
2
ACAD
70
0
0
ENDTAB
0
TABLE
2
DIMSTYLE
5
A
100
AcDbSymbolTable
70
1
0
ENDTAB
0
TABLE
2
BLOCK_RECORD
5
1
100
AcDbSymbolTable
70
1
0
BLOCK_RECORD
5
1F
100
AcDbSymbolTableRecord
100
AcDbBlockTableRecord
2
*MODEL_SPACE
0
BLOCK_RECORD
5
1B
100
AcDbSymbolTableRecord
100
AcDbBlockTableRecord
2
*PAPER_SPACE
0
ENDTAB
0
ENDSEC
0
SECTION
2
BLOCKS
0
BLOCK
5
20
100
AcDbEntity
100
AcDbBlockBegin
2
*MODEL_SPACE
0
ENDBLK
5
21
100
AcDbEntity
100
AcDbBlockEnd
0
BLOCK
5
1C
100
AcDbEntity
100
AcDbBlockBegin
2
*PAPER_SPACE
0
ENDBLK
5
1D
100
AcDbEntity
100
AcDbBlockEnd
0
ENDSEC
0
SECTION
2
ENTITIES
0
CIRCLE
5
100
100
AcDbEntity
8
0
100
AcDbCircle
10
14.784060180743737
20
33.527506983454536
30
0
40
1.5500000000000003
210
0
220
-0
230
1
0
CIRCLE
5
101
100
AcDbEntity
8
0
100
AcDbCircle
10
-8.4490838947829818
20
9.4002306818581385
30
0
40
1.5500000000000003
210
0
220
-0
230
1
0
CIRCLE
5
102
100
AcDbEntity
8
0
100
AcDbCircle
10
7.2500000000000009
20
20.300000000000004
30
0
40
0.35000000000000003
210
-0
220
0
230
1
0
CIRCLE
5
103
100
AcDbEntity
8
0
100
AcDbCircle
10
7.2500000000000009
20
17.300000000000001
30
0
40
0.35000000000000003
210
-0
220
0
230
1
0
CIRCLE
5
104
100
AcDbEntity
8
0
100
AcDbCircle
10
7.25
20
14.299999999999999
30
0
40
0.35000000000000003
210
-0
220
0
230
1
0
CIRCLE
5
105
100
AcDbEntity
8
0
100
AcDbCircle
10
7.25
20
12.800000000000001
30
0
40
0.35000000000000003
210
-0
220
0
230
1
0
CIRCLE
5
106
100
AcDbEntity
8
0
100
AcDbCircle
10
7.2500000000000009
20
15.800000000000001
30
0
40
0.35000000000000003
210
-0
220
0
230
1
0
CIRCLE
5
107
100
AcDbEntity
8
0
100
AcDbCircle
10
7.2500000000000009
20
18.800000000000001
30
0
40
0.35000000000000003
210
-0
220
0
230
1
0
CIRCLE
5
108
100
AcDbEntity
8
0
100
AcDbCircle
10
7.2500000000000009
20
21.800000000000001
30
0
40
0.35000000000000003
210
-0
220
0
230
1
0
CIRCLE
5
109
100
AcDbEntity
8
0
100
AcDbCircle
10
-3.0000000000000004
20
19.93
30
0
40
0.40000000000000008
210
-0
220
0
230
1
0
CIRCLE
5
110
100
AcDbEntity
8
0
100
AcDbCircle
10
-3.0000000000000004
20
22.469999999999999
30
0
40
0.40000000000000008
210
-0
220
0
230
1
0
CIRCLE
5
111
100
AcDbEntity
8
0
100
AcDbCircle
10
-12.328694609924282
20
22.004071841606425
30
0
40
0.40000000000000024
210
-0
220
0
230
1
0
CIRCLE
5
112
100
AcDbEntity
8
0
100
AcDbCircle
10
-14.715513866720489
20
22.87280300565363
30
0
40
0.40000000000000024
210
-0
220
0
230
1
0
CIRCLE
5
113
100
AcDbEntity
8
0
100
AcDbCircle
10
-6.8784774093660221
20
20.020355010317552
30
0
40
0.40000000000000024
210
-0
220
0
230
1
0
CIRCLE
5
114
100
AcDbEntity
8
0
100
AcDbCircle
10
-9.2652966661622287
20
20.889086174364753
30
0
40
0.40000000000000024
210
-0
220
0
230
1
0
CIRCLE
5
115
100
AcDbEntity
8
0
100
AcDbCircle
10
20.429999999999989
20
5.5770815280171346
30
0
40
0.40000000000000008
210
-0
220
0
230
1
0
CIRCLE
5
116
100
AcDbEntity
8
0
100
AcDbCircle
10
22.969999999999988
20
5.5770815280171355
30
0
40
0.40000000000000008
210
-0
220
0
230
1
0
CIRCLE
5
117
100
AcDbEntity
8
0
100
AcDbCircle
10
22.969999999999988
20
31.475000000000009
30
0
40
0.40000000000000008
210
-0
220
0
230
1
0
CIRCLE
5
118
100
AcDbEntity
8
0
100
AcDbCircle
10
20.429999999999989
20
31.475000000000005
30
0
40
0.40000000000000008
210
-0
220
0
230
1
0
CIRCLE
5
119
100
AcDbEntity
8
0
100
AcDbCircle
10
20.43
20
19.425000000000008
30
0
40
0.40000000000000008
210
0
220
-0
230
1
0
CIRCLE
5
120
100
AcDbEntity
8
0
100
AcDbCircle
10
22.970000000000002
20
19.425000000000008
30
0
40
0.40000000000000008
210
0
220
-0
230
1
0
CIRCLE
5
121
100
AcDbEntity
8
0
100
AcDbCircle
10
20.43
20
-6.4729184719828678
30
0
40
0.40000000000000008
210
0
220
-0
230
1
0
CIRCLE
5
122
100
AcDbEntity
8
0
100
AcDbCircle
10
22.970000000000002
20
-6.472918471982867
30
0
40
0.40000000000000008
210
0
220
-0
230
1
0
CIRCLE
5
123
100
AcDbEntity
8
0
100
AcDbCircle
10
-2.7571346822917104
20
31.343651090787745
30
0
40
0.40000000000000013
210
0
220
-0
230
1
0
CIRCLE
5
124
100
AcDbEntity
8
0
100
AcDbCircle
10
-5.1439539390879174
20
32.212382254834942
30
0
40
0.40000000000000013
210
0
220
-0
230
1
0
CIRCLE
5
125
100
AcDbEntity
8
0
100
AcDbCircle
10
-8.2073518828499683
20
33.327367922076618
30
0
40
0.40000000000000024
210
0
220
-0
230
1
0
CIRCLE
5
126
100
AcDbEntity
8
0
100
AcDbCircle
10
-10.594171139646178
20
34.196099086123816
30
0
40
0.40000000000000024
210
0
220
-0
230
1
0
CIRCLE
5
127
100
AcDbEntity
8
0
100
AcDbCircle
10
17.500000000000007
20
19.93
30
0
40
0.40000000000000008
210
0
220
-0
230
1
0
CIRCLE
5
128
100
AcDbEntity
8
0
100
AcDbCircle
10
17.500000000000007
20
22.469999999999999
30
0
40
0.40000000000000008
210
0
220
-0
230
1
0
LWPOLYLINE
5
129
100
AcDbEntity
8
0
100
AcDbPolyline
90
28
70
1
43
0.0
10
-11.610048133468995
20
35.951515826905819
10
-12.56842337995678
20
33.318401477816373
10
-2.6546662306654416
20
29.71008896573057
10
-5.7499485277627453
20
21.205870747618093
10
-15.663705677054086
20
24.814183259703899
10
-16.637539129330936
20
22.138597839263735
10
-9.7168361268124031
20
5.3999999999999959
10
11.600000000000003
20
5.4000000000000004
10
11.600000000000003
20
-7.6947852758338531
10
18.175047652825015
20
-7.6979184719828684
10
24.525000000000006
20
-7.6979184719828684
10
24.525000000000006
20
-4.9729184719828661
10
19.775000000000006
20
-4.9729184719828661
10
19.775000000000006
20
4.0770815280171364
10
24.525000000000006
20
4.0770815280171364
10
24.525000000000006
20
8.8010407640085706
10
17.525000000000006
20
8.8010407640085706
10
17.525000000000006
20
16.201040764008571
10
24.525000000000006
20
16.201040764008571
10
24.525000000000009
20
20.925000000000008
10
19.775000000000006
20
20.925000000000008
10
19.775000000000006
20
29.975000000000009
10
24.525000000000006
20
29.975000000000009
10
24.525000000000006
20
33.74598753765401
10
10.950000000000003
20
37.333411376776418
10
10.950000000000003
20
31.200000000000006
10
3.5500000000000016
20
31.200000000000006
10
3.550000000000002
20
37.775153015640257
0
CIRCLE
5
130
100
AcDbEntity
8
0
100
AcDbCircle
10
0
20
0
30
0
40
1.0000000000000002
210
0
220
-0
230
1
0
ENDSEC
0
SECTION
2
OBJECTS
0
DICTIONARY
5
C
100
AcDbDictionary
3
ACAD_GROUP
350
D
3
ACAD_MLINESTYLE
350
17
0
DICTIONARY
5
D
100
AcDbDictionary
0
DICTIONARY
5
1A
330
C
100
AcDbDictionary
0
DICTIONARY
5
17
100
AcDbDictionary
0
ENDSEC
0
EOF
