0
SECTION
2
HEADER
9
$INSUNITS
70
4
9
$ACADVER
1
AC1014
9
$HANDSEED
5
FFFF
0
ENDSEC
0
SECTION
2
TABLES
0
TABLE
2
VPORT
5
8
100
AcDbSymbolTable
0
ENDTAB
0
TABLE
2
LTYPE
5
5
100
AcDbSymbolTable
0
LTYPE
5
14
100
AcDbSymbolTableRecord
100
AcDbLinetypeTableRecord
2
BYBLOCK
70
0
0
LTYPE
5
15
100
AcDbSymbolTableRecord
100
AcDbLinetypeTableRecord
2
BYLAYER
70
0
0
ENDTAB
0
TABLE
2
LAYER
5
2
100
AcDbSymbolTable
70
2
0
LAYER
5
50
100
AcDbSymbolTableRecord
100
AcDbLayerTableRecord
2
0
70
0
6
CONTINUOUS
0
ENDTAB
0
TABLE
2
STYLE
5
3
100
AcDbSymbolTable
70
1
0
STYLE
5
11
100
AcDbSymbolTableRecord
100
AcDbTextStyleTableRecord
2
STANDARD
70
0
0
ENDTAB
0
TABLE
2
VIEW
5
6
100
AcDbSymbolTable
70
0
0
ENDTAB
0
TABLE
2
UCS
5
7
100
AcDbSymbolTable
70
0
0
ENDTAB
0
TABLE
2
APPID
5
9
100
AcDbSymbolTable
70
2
0
APPID
5
12
100
AcDbSymbolTableRecord
100
AcDbRegAppTableRecord
2
ACAD
70
0
0
ENDTAB
0
TABLE
2
DIMSTYLE
5
A
100
AcDbSymbolTable
70
1
0
ENDTAB
0
TABLE
2
BLOCK_RECORD
5
1
100
AcDbSymbolTable
70
1
0
BLOCK_RECORD
5
1F
100
AcDbSymbolTableRecord
100
AcDbBlockTableRecord
2
*MODEL_SPACE
0
BLOCK_RECORD
5
1B
100
AcDbSymbolTableRecord
100
AcDbBlockTableRecord
2
*PAPER_SPACE
0
ENDTAB
0
ENDSEC
0
SECTION
2
BLOCKS
0
BLOCK
5
20
100
AcDbEntity
100
AcDbBlockBegin
2
*MODEL_SPACE
0
ENDBLK
5
21
100
AcDbEntity
100
AcDbBlockEnd
0
BLOCK
5
1C
100
AcDbEntity
100
AcDbBlockBegin
2
*PAPER_SPACE
0
ENDBLK
5
1D
100
AcDbEntity
100
AcDbBlockEnd
0
ENDSEC
0
SECTION
2
ENTITIES
0
CIRCLE
5
100
100
AcDbEntity
8
0
100
AcDbCircle
10
-14.268873412372781
20
33.687878168267993
30
0
40
1.5500000000000003
210
0
220
0
230
1
0
CIRCLE
5
101
100
AcDbEntity
8
0
100
AcDbCircle
10
8.1548445327304684
20
8.6339209299156909
30
0
40
1.5500000000000003
210
-0
220
0
230
1
0
CIRCLE
5
102
100
AcDbEntity
8
0
100
AcDbCircle
10
-7.2500000000000009
20
20.300000000000004
30
0
40
0.35000000000000003
210
0
220
0
230
1
0
CIRCLE
5
103
100
AcDbEntity
8
0
100
AcDbCircle
10
-7.2500000000000009
20
17.300000000000001
30
0
40
0.35000000000000003
210
0
220
0
230
1
0
CIRCLE
5
104
100
AcDbEntity
8
0
100
AcDbCircle
10
-7.25
20
14.299999999999999
30
0
40
0.35000000000000003
210
0
220
0
230
1
0
CIRCLE
5
105
100
AcDbEntity
8
0
100
AcDbCircle
10
-7.25
20
12.800000000000001
30
0
40
0.35000000000000003
210
0
220
0
230
1
0
CIRCLE
5
106
100
AcDbEntity
8
0
100
AcDbCircle
10
-7.2500000000000009
20
15.800000000000001
30
0
40
0.35000000000000003
210
0
220
0
230
1
0
CIRCLE
5
107
100
AcDbEntity
8
0
100
AcDbCircle
10
-7.2500000000000009
20
18.800000000000001
30
0
40
0.35000000000000003
210
0
220
0
230
1
0
CIRCLE
5
108
100
AcDbEntity
8
0
100
AcDbCircle
10
-7.2500000000000009
20
21.800000000000001
30
0
40
0.35000000000000003
210
0
220
0
230
1
0
CIRCLE
5
109
100
AcDbEntity
8
0
100
AcDbCircle
10
3.0000000000000004
20
19.93
30
0
40
0.40000000000000008
210
0
220
0
230
1
0
CIRCLE
5
110
100
AcDbEntity
8
0
100
AcDbCircle
10
3.0000000000000004
20
22.469999999999999
30
0
40
0.40000000000000008
210
0
220
0
230
1
0
CIRCLE
5
111
100
AcDbEntity
8
0
100
AcDbCircle
10
12.32869460992428
20
22.004071841606425
30
0
40
0.40000000000000024
210
0
220
0
230
1
0
CIRCLE
5
112
100
AcDbEntity
8
0
100
AcDbCircle
10
14.715513866720487
20
22.87280300565363
30
0
40
0.40000000000000024
210
0
220
0
230
1
0
CIRCLE
5
113
100
AcDbEntity
8
0
100
AcDbCircle
10
6.8784774093660221
20
20.020355010317552
30
0
40
0.40000000000000024
210
0
220
0
230
1
0
CIRCLE
5
114
100
AcDbEntity
8
0
100
AcDbCircle
10
9.2652966661622287
20
20.889086174364753
30
0
40
0.40000000000000024
210
0
220
0
230
1
0
CIRCLE
5
115
100
AcDbEntity
8
0
100
AcDbCircle
10
-20.429999999999989
20
5.5770815280171346
30
0
40
0.40000000000000008
210
-0
220
0
230
1
0
CIRCLE
5
116
100
AcDbEntity
8
0
100
AcDbCircle
10
-22.969999999999988
20
5.5770815280171355
30
0
40
0.40000000000000008
210
-0
220
0
230
1
0
CIRCLE
5
117
100
AcDbEntity
8
0
100
AcDbCircle
10
-22.969999999999988
20
31.475000000000009
30
0
40
0.40000000000000008
210
-0
220
0
230
1
0
CIRCLE
5
118
100
AcDbEntity
8
0
100
AcDbCircle
10
-20.429999999999989
20
31.475000000000005
30
0
40
0.40000000000000008
210
-0
220
0
230
1
0
CIRCLE
5
119
100
AcDbEntity
8
0
100
AcDbCircle
10
-20.43
20
19.425000000000008
30
0
40
0.40000000000000008
210
0
220
0
230
1
0
CIRCLE
5
120
100
AcDbEntity
8
0
100
AcDbCircle
10
-22.970000000000002
20
19.425000000000008
30
0
40
0.40000000000000008
210
0
220
0
230
1
0
CIRCLE
5
121
100
AcDbEntity
8
0
100
AcDbCircle
10
-20.43
20
-6.4729184719828678
30
0
40
0.40000000000000008
210
0
220
0
230
1
0
CIRCLE
5
122
100
AcDbEntity
8
0
100
AcDbCircle
10
-22.970000000000002
20
-6.472918471982867
30
0
40
0.40000000000000008
210
0
220
0
230
1
0
CIRCLE
5
123
100
AcDbEntity
8
0
100
AcDbCircle
10
2.7571346822917104
20
31.343651090787745
30
0
40
0.40000000000000013
210
-0
220
0
230
1
0
CIRCLE
5
124
100
AcDbEntity
8
0
100
AcDbCircle
10
5.1439539390879174
20
32.212382254834942
30
0
40
0.40000000000000013
210
-0
220
0
230
1
0
CIRCLE
5
125
100
AcDbEntity
8
0
100
AcDbCircle
10
8.2073518828499665
20
33.327367922076618
30
0
40
0.40000000000000024
210
-0
220
0
230
1
0
CIRCLE
5
126
100
AcDbEntity
8
0
100
AcDbCircle
10
10.594171139646175
20
34.196099086123816
30
0
40
0.40000000000000024
210
-0
220
0
230
1
0
CIRCLE
5
127
100
AcDbEntity
8
0
100
AcDbCircle
10
-17.500000000000007
20
19.93
30
0
40
0.40000000000000008
210
0
220
-0
230
1
0
CIRCLE
5
128
100
AcDbEntity
8
0
100
AcDbCircle
10
-17.500000000000007
20
22.469999999999999
30
0
40
0.40000000000000008
210
0
220
-0
230
1
0
LWPOLYLINE
5
129
100
AcDbEntity
8
0
100
AcDbPolyline
90
43
70
1
43
0.0
10
-19.775000000000006
20
3.077081528017136
10
-19.775000000000002
20
-3.9729184719828661
42
-0.41421356237309426
10
-20.775000000000006
20
-4.9729184719828661
10
-24.525000000000006
20
-4.9729184719828661
10
-24.525000000000006
20
-7.8979184719828659
42
0.41425251518624367
10
-23.724893606887242
20
-8.6979184649081862
10
-11.6
20
-8.6933697752580503
10
-11.600000000000003
20
4.3999999999999986
42
-0.41421356237309698
10
-10.600000000000001
20
5.3999999999999995
10
10.073735927624391
20
5.3999999999999959
10
16.635469806641517
20
21.449748564378353
42
0.20039266215967011
10
16.664114596281664
20
22.065582343905117
10
15.663705677054082
20
24.814183259703899
10
6.6896411485486551
20
21.547890890943762
42
-0.41421356237309764
10
5.4079283844370751
20
22.145563368404005
10
2.9966863739911123
20
28.770396344944658
42
-0.41421356237309653
10
3.5943588514513514
20
30.052109109056239
10
12.568423379956782
20
33.318401477816373
10
11.568014460729195
20
36.067002393615162
42
0.31687580584223324
10
10.811672333623974
20
36.593373122581653
10
-3.5500000000000016
20
37.881104657580394
10
-3.5500000000000016
20
32.200000000000003
42
-0.41421356237309492
10
-4.5500000000000016
20
31.200000000000003
10
-9.9500000000000011
20
31.199999999999996
42
-0.41421356237309404
10
-10.950000000000003
20
32.200000000000003
10
-10.950000000000003
20
37.475495624855469
10
-23.787441744108854
20
34.69755942010152
42
0.41917529491665695
10
-24.521389503725981
20
33.82408057985532
10
-24.525000000000006
20
32.899609454270134
10
-24.525000000000006
20
29.975000000000009
10
-20.775000000000009
20
29.975000000000005
42
-0.41421356237309243
10
-19.775000000000006
20
28.975000000000009
10
-19.775000000000009
20
21.925000000000008
42
-0.41421356237309115
10
-20.775000000000006
20
20.925000000000008
10
-24.525000000000009
20
20.925000000000008
10
-24.525000000000006
20
16.201040764008571
10
-18.525000000000006
20
16.201040764008567
42
-0.41421356237309176
10
-17.525000000000006
20
15.201040764008571
10
-17.525000000000006
20
9.8010407640085724
42
-0.41421356237309243
10
-18.525000000000006
20
8.8010407640085706
10
-24.525000000000006
20
8.8010407640085706
10
-24.525000000000006
20
4.0770815280171364
10
-20.775000000000006
20
4.077081528017132
42
-0.41421356237309426
0
CIRCLE
5
130
100
AcDbEntity
8
0
100
AcDbCircle
10
0
20
0
30
0
40
1.0000000000000002
210
0
220
-0
230
1
0
ENDSEC
0
SECTION
2
OBJECTS
0
DICTIONARY
5
C
100
AcDbDictionary
3
ACAD_GROUP
350
D
3
ACAD_MLINESTYLE
350
17
0
DICTIONARY
5
D
100
AcDbDictionary
0
DICTIONARY
5
1A
330
C
100
AcDbDictionary
0
DICTIONARY
5
17
100
AcDbDictionary
0
ENDSEC
0
EOF
